<svg xmlns="http://www.w3.org/2000/svg" viewBox="0 0 56.69000244140625 56.69000244140625"><g><g><path fill="none" d="M29.76 28.35h11.33-11.33z"></path><path d="M41.09 28.35a12.77 12.77 0 0 0-11.33-12.67v12.67z" fill="#ff441f"></path><path d="M28.35 12.76a15.62 15.62 0 0 1 15.58 15.59h12.76A28.35 28.35 0 0 0 28.34 0z" fill="#ff441f"></path><path d="M43.93 28.35v14.17a1.42 1.42 0 0 1-2.84 0V28.35H29.76v14.17a1.42 1.42 0 0 1-1.41 1.42v12.75h28.34V28.35z" fill="#219d4a"></path><path d="M12.75 14.18a1.42 1.42 0 0 1 1.42-1.42h14.17V0H0v28.35h12.75z" fill="#93eb30"></path><path fill="#93eb30" d="M15.59 15.59h11.34v12.75H15.59z"></path><rect x="28.34" height="12.76" fill="#93eb30"></rect><path d="M28.34 43.94a1.42 1.42 0 0 1-1.42-1.42V28.35H15.59v14.17a1.42 1.42 0 0 1-2.84 0V28.35H0v28.34h28.34V43.94zM28.34 43.94v12.75h.01V43.94h-.01z" fill="#a41c04"></path></g></g></svg>